<svg enable-background="new 0 0 12 12" version="1.1" viewBox="0 0 12 12" xml:space="preserve" xmlns="http://www.w3.org/2000/svg">
<path d="m11.864 3.017c-0.082-0.098-0.203-0.154-0.327-0.154h-2.312v1.227c0 0.563-0.484 1.022-1.08 1.022-0.594 0-1.078-0.458-1.078-1.022v-1.227h-2.158v1.227c0 0.563-0.485 1.022-1.08 1.022s-1.078-0.458-1.078-1.022v-1.227h-2.313c-0.125 0-0.243 0.056-0.327 0.154-0.083 0.098-0.123 0.228-0.108 0.358l0.776 7.134c0.015 0.806 0.642 1.455 1.411 1.455h7.595c0.77 0 1.396-0.649 1.411-1.455l0.776-7.134c0.015-0.13-0.026-0.26-0.108-0.358z"/><path d="m3.829 4.499c0.239 0 0.433-0.184 0.433-0.409v-2.25c0-0.632 0.672-1.022 1.295-1.022h1.079c0.655 0 1.078 0.401 1.078 1.022v2.25c0 0.225 0.194 0.409 0.431 0.409 0.239 0 0.433-0.184 0.433-0.409v-2.25c-1e-3 -1.067-0.817-1.84-1.942-1.84h-1.079c-1.19 0-2.159 0.826-2.159 1.84v2.25c0 0.225 0.194 0.409 0.431 0.409z"/></svg>
