<svg enable-background="new 0 0 132 69" version="1.1" viewBox="0 0 132 69" xml:space="preserve" xmlns="http://www.w3.org/2000/svg"><g transform="translate(0 512) scale(.1 -.1)" fill="#363636"><path d="m120.52 5117.4c-55.449-4.873-102.14-15.928-114.77-26.724-7.227-6.162-7.227-6.162-2.324-11.562 6.445-7.197 37.134-16.45 72.476-22.363 39.98-6.68 125.1-6.934 137.23-0.513 12.119 6.68 16.24 14.136 16.24 29.814 0 16.187-6.191 24.16-22.178 28.525-14.458 3.859-57.783 5.402-86.675 2.823z"/><path d="m257.74 5115.1c-1.294-2.832-2.583-21.079-2.583-41.118 0-40.61 1.553-37.783-21.919-39.331l-10.308-0.771-1.294-25.444-1.289-25.439-11.865-2.832c-25.791-6.68-39.99-25.952-37.915-52.944 1.279-19.272 10.308-33.408 25.786-40.869 11.089-5.132 14.697-5.381 112.46-5.381 55.449 0 101.37-0.786 101.88-1.807 0.508-1.284-11.094-94.072-25.796-206.39-14.448-112.3-26.831-209.97-27.085-216.66-0.513-16.172 8.262-26.211 23.477-26.211 12.373 0 20.117 6.416 23.213 19.014 1.294 5.137 14.956 103.33 30.181 218.21 15.22 114.63 28.628 208.69 29.404 208.69 1.03 0 10.83-14.131 21.924-31.357 29.399-46.26 23.989-43.169 76.353-43.169h43.584v-56.298l-51.328-0.771c-47.202-0.771-52.1-1.27-58.813-6.152-15.728-11.572-16.25-14.15-16.25-109.77 0-95.342 0.264-97.92 15.225-110.5l8.511-6.953h313.65l8.506 6.953c14.961 12.578 15.205 15.156 15.205 110.5 0 95.615-0.508 98.193-16.23 109.77-6.709 4.883-11.611 5.381-58.818 6.152l-51.318 0.771v56.298h43.594c52.344 0 46.934-3.091 76.338 43.169 11.104 17.227 20.898 31.357 21.934 31.357 0.762 0 14.189-94.058 29.395-208.69 15.225-114.88 28.896-213.08 30.186-218.21 3.096-12.598 10.82-19.014 23.213-19.014 15.215 0 23.994 10.039 23.467 26.211-0.254 6.689-12.637 104.36-27.09 216.66-14.688 112.31-26.309 205.1-25.781 206.39 0.508 1.021 46.416 1.807 101.9 1.807 97.754 0 101.36 0.249 112.44 5.381 15.479 7.461 24.502 21.597 25.791 40.869 2.07 26.992-12.109 46.265-37.91 52.944l-11.875 2.832-1.27 25.439-1.289 25.444-10.322 0.771c-23.467 1.548-21.934-1.279-21.934 39.331 0 20.039-1.279 38.286-2.568 41.118-2.061 3.599-5.43 4.883-13.672 4.883-6.191 0-12.383-1.284-14.199-3.086-2.061-2.056-3.096-14.653-3.096-39.321 0-24.673-1.025-37.271-3.096-39.321-1.797-1.797-9.014-3.081-16.494-3.081-16.26 0-16.514-0.522-16.514-31.104v-22.871h-670.64v22.871c0 30.581-0.249 31.104-16.499 31.104-7.485 0-14.702 1.284-16.504 3.081-2.075 2.051-3.101 14.648-3.101 39.321 0 24.668-1.03 37.266-3.096 39.321-1.807 1.802-8.003 3.086-14.189 3.086-8.247 0-11.602-1.285-13.672-4.883zm428.43-401.2c28.887-8.984 53.916-33.926 61.66-61.68 4.385-15.43 3.096-42.158-2.842-57.832-6.963-18.75-26.846-40.098-45.654-49.355-12.9-6.416-17.539-7.188-39.209-7.188-21.665 0-26.309 0.771-39.204 7.188-18.843 9.258-38.691 30.605-45.659 49.355-5.928 15.674-7.227 42.402-2.837 57.832 7.48 27.236 32.495 52.695 60.615 61.68 20.122 6.425 33.003 6.425 53.13 0z"/><path d="m637.94 4675.6c-20.366-9.258-35.068-36.494-30.688-57.305 7.739-36.768 48.232-55.527 79.956-37.021 19.854 11.582 29.912 35.469 24.512 57.832-5.684 23.906-27.344 41.377-51.592 41.377-6.455-1e-3 -16.255-2.315-22.188-4.883z"/><path d="m360.92 5118.5c-39.204-6.68-45.132-11.309-45.132-34.438 0-18.247 4.639-24.16 22.681-29.556 15.498-4.624 71.724-5.142 105-1.284 68.608 8.223 113.22 25.444 96.987 37.52-12.651 8.999-49.023 18.765-90.542 23.901-24.756 3.08-79.961 5.4-88.994 3.857z"/><path d="m894.84 5117.4c-63.193-5.903-118.64-20.811-118.64-31.86 0-17.222 78.408-34.697 156.3-34.956 58.037 0 71.963 6.421 71.963 33.413 0 18.242-6.191 26.216-23.73 30.84-16.495 4.116-56.749 5.142-85.889 2.563z"/><path d="m1127.8 5117.2c-17.803-2.31-30.186-7.705-34.307-14.907-3.867-7.705-3.096-29.038 1.543-35.718 9.277-13.11 16.523-14.653 70.684-14.653 36.611 0 58.018 1.289 78.662 4.883 35.342 5.913 66.035 15.166 72.48 22.363 4.902 5.4 4.902 5.4-2.324 11.562-13.408 11.309-59.58 21.851-119.16 26.724-34.815 2.832-44.883 2.832-67.578-0.254z"/></g></svg>
