<svg enable-background="new 0 0 156 188" version="1.1" viewBox="0 0 156 188" xml:space="preserve" xmlns="http://www.w3.org/2000/svg"><g fill="#fff"><circle cx="141.25" cy="68.877" r="14.75"/><path d="m89.113 139.54l-7.074 17.875-22.824 14.917c-2.168 1.232-3.634 3.559-3.634 6.23 0 3.958 3.208 7.167 7.167 7.167 1.535 0 2.955-0.487 4.121-1.31 3.761-2.371 22.351-14.084 25.495-15.88 3.5-2 4.125-5.125 4.125-5.125l4.875-16-5.75-2.625s-6.501-5.249-6.501-5.249z"/><path d="m139.32 141.46s-1.158-3.834-4.579-5.167-18.087-7.75-18.087-7.75l15.416-25.584s3.834-9-0.333-13.417-13.75-9.75-13.75-9.75h-7.521l15.799-26.801c3.354-5.686 1.443-13.081-4.242-16.432l-49.391-29.114c-5.686-3.352-13.079-1.442-16.431 4.244l-47.058 79.828c-3.351 5.685-1.442 13.08 4.244 16.432l49.39 29.113c5.686 3.352 13.081 1.441 16.432-4.242l22.934-38.903h8.096l-14.75 26.209s-5.134 9.214-0.334 14.25c4.209 4.416 12.667 6.916 12.667 6.916l17.25 6.501 5.101 31.291 9e-3 -1e-3c0.549 3.413 3.499 6.023 7.067 6.023 3.958 0 7.166-3.209 7.166-7.167 0-0.189-0.014-0.375-0.028-0.56l0.028-4e-3 -5.095-35.915zm-121.36-41.264c-1.401-0.826-1.887-2.708-1.061-4.108l47.059-79.829c0.826-1.401 2.707-1.888 4.107-1.062l11.521 6.792-50.104 84.998-11.522-6.791zm53.498 28.054c-0.826 1.4-2.707 1.887-4.107 1.061l-30.116-17.754 50.107-84.996 30.113 17.753c1.402 0.826 1.887 2.707 1.062 4.107l-18.493 31.372h-8.783l-19.916 14.427c-0.442 0.252-0.853 0.553-1.23 0.891l-0.031 0.022 2e-3 3e-3c-1.445 1.312-2.358 3.198-2.358 5.304 0 3.958 3.208 7.167 7.167 7.167 1.548 0 2.978-0.496 4.149-1.331l2e-3 3e-3 0.071-0.058c0.182-0.133 0.356-0.273 0.524-0.423l9.66-7.784-17.823 30.236z"/></g><path d="m49.219 5.943l-47.058 79.829c-3.351 5.685-1.442 13.08 4.244 16.432l49.39 29.113c5.686 3.352 13.081 1.441 16.432-4.242l47.057-79.829c3.354-5.686 1.443-13.081-4.242-16.432l-49.392-29.114c-5.685-3.352-13.079-1.442-16.431 4.243zm-39.305 84.4l47.059-79.829c0.826-1.401 2.707-1.888 4.107-1.062l11.521 6.792-50.105 84.998-11.522-6.791c-1.4-0.826-1.886-2.708-1.06-4.108zm101.62-47.667l-47.059 79.829c-0.826 1.4-2.707 1.887-4.107 1.061l-30.116-17.754 50.106-84.996 30.113 17.753c1.403 0.825 1.887 2.706 1.063 4.107z" fill="#F0C42E"/><g fill="#3A3A3A"><circle cx="135.25" cy="63.083" r="14.75"/><path d="m81.875 133.75l-7.074 17.875-22.825 14.917c-2.168 1.232-3.634 3.559-3.634 6.23 0 3.958 3.208 7.167 7.167 7.167 1.535 0 2.955-0.487 4.121-1.31 3.761-2.371 22.351-14.084 25.495-15.88 3.5-2 4.125-5.125 4.125-5.125l4.875-16-5.75-2.625s-6.5-5.249-6.5-5.249z"/><path d="m132.08 135.67s-1.158-3.834-4.579-5.167-18.087-7.75-18.087-7.75l15.416-25.584s3.834-9-0.333-13.417-13.75-9.75-13.75-9.75h-26.75l-19.915 14.427c-0.442 0.253-0.853 0.553-1.23 0.891l-0.031 0.022 2e-3 3e-3c-1.445 1.311-2.358 3.198-2.358 5.303 0 3.958 3.208 7.167 7.167 7.167 1.548 0 2.978-0.496 4.149-1.331l2e-3 3e-3 0.071-0.058c0.182-0.133 0.357-0.273 0.525-0.423l14.743-11.881h15.875l-14.75 26.209s-5.134 9.214-0.334 14.25c4.209 4.416 12.667 6.916 12.667 6.916l17.25 6.501 5.101 31.291 9e-3 -1e-3c0.549 3.413 3.499 6.023 7.067 6.023 3.958 0 7.166-3.209 7.166-7.167 0-0.189-0.014-0.375-0.028-0.56l0.028-4e-3 -5.093-35.913z"/></g></svg>
