<svg enable-background="new 0 0 107 65" version="1.1" viewBox="0 0 107 65" xml:space="preserve" xmlns="http://www.w3.org/2000/svg"><g fill="#363636"><path d="m98.967 4.074c0.752 1.441 1.209 3.08 1.209 4.818v21.102c0 4.616-3.092 8.527-7.246 9.9-1.325 3.987-3.778 7.854-8.051 10.432-8.676 5.231-31.124 4.837-31.198 4.837-0.078 0-22.513 0.395-31.189-4.837-4.216-2.545-6.708-6.347-8.042-10.279-4.418-1.209-7.756-5.251-7.756-10.053v-21.101c0-1.688 0.427-3.282 1.139-4.693-3.663 0.909-7.833 2.718-7.833 6.234v29.983c0 10.251 11.839 24.433 53.657 24.433 41.82 0 53.657-14.182 53.657-24.433v-29.983c-1e-3 -3.684-4.576-5.494-8.347-6.36z"/><path d="m20.561 38.459h65.523c5.564 0 10.074-4.513 10.074-10.077v-18.447c0-5.563-4.51-10.075-10.074-10.075h-65.523c-5.564 0-10.075 4.511-10.075 10.075v18.447c0 5.564 4.511 10.077 10.075 10.077zm63.134-28.991c0.867 0 1.569 0.703 1.569 1.57 0 0.866-0.702 1.569-1.569 1.569s-1.568-0.703-1.568-1.569c0-0.868 0.701-1.57 1.568-1.57zm0 4.039c0.867 0 1.569 0.703 1.569 1.568 0 0.867-0.702 1.569-1.569 1.569s-1.568-0.702-1.568-1.569c0-0.865 0.701-1.568 1.568-1.568zm0 4.039c0.867 0 1.569 0.702 1.569 1.569 0 0.866-0.702 1.569-1.569 1.569s-1.568-0.703-1.568-1.569c0-0.867 0.701-1.569 1.568-1.569zm0 3.827c0.867 0 1.569 0.704 1.569 1.569 0 0.867-0.702 1.568-1.569 1.568s-1.568-0.701-1.568-1.568c0-0.866 0.701-1.569 1.568-1.569zm0 4.039c0.867 0 1.569 0.702 1.569 1.569 0 0.865-0.702 1.568-1.569 1.568s-1.568-0.704-1.568-1.568c0-0.867 0.701-1.569 1.568-1.569zm-4.039-15.944c0.867 0 1.568 0.703 1.568 1.57 0 0.866-0.701 1.569-1.568 1.569-0.865 0-1.568-0.703-1.568-1.569 0-0.868 0.703-1.57 1.568-1.57zm0 15.944c0.867 0 1.568 0.702 1.568 1.569 0 0.865-0.701 1.568-1.568 1.568-0.865 0-1.568-0.704-1.568-1.568 0-0.867 0.703-1.569 1.568-1.569zm-4.037-15.944c0.865 0 1.568 0.703 1.568 1.57 0 0.866-0.703 1.569-1.568 1.569-0.867 0-1.569-0.703-1.569-1.569 0-0.868 0.702-1.57 1.569-1.57zm0 4.039c0.865 0 1.568 0.703 1.568 1.568 0 0.867-0.703 1.569-1.568 1.569-0.867 0-1.569-0.702-1.569-1.569 0-0.865 0.702-1.568 1.569-1.568zm0 4.039c0.865 0 1.568 0.702 1.568 1.569 0 0.866-0.703 1.569-1.568 1.569-0.867 0-1.569-0.703-1.569-1.569 0-0.867 0.702-1.569 1.569-1.569zm0 3.827c0.865 0 1.568 0.704 1.568 1.569 0 0.867-0.703 1.568-1.568 1.568-0.867 0-1.569-0.701-1.569-1.568 0-0.866 0.702-1.569 1.569-1.569zm0 4.039c0.865 0 1.568 0.702 1.568 1.569 0 0.865-0.703 1.568-1.568 1.568-0.867 0-1.569-0.704-1.569-1.568 0-0.867 0.702-1.569 1.569-1.569zm-7.654-15.944c0.867 0 1.568 0.703 1.568 1.57 0 0.866-0.701 1.569-1.568 1.569s-1.568-0.703-1.568-1.569c-1e-3 -0.868 0.703-1.57 1.568-1.57zm0 8.078c0.867 0 1.568 0.702 1.568 1.569 0 0.866-0.701 1.569-1.568 1.569s-1.568-0.703-1.568-1.569c-1e-3 -0.867 0.703-1.569 1.568-1.569zm0 3.881c0.867 0 1.568 0.701 1.568 1.568 0 0.865-0.701 1.569-1.568 1.569s-1.568-0.704-1.568-1.569c-1e-3 -0.867 0.703-1.568 1.568-1.568zm0 3.985c0.867 0 1.568 0.702 1.568 1.569 0 0.865-0.701 1.568-1.568 1.568s-1.568-0.704-1.568-1.568c-1e-3 -0.867 0.703-1.569 1.568-1.569zm-4.039-15.944c0.867 0 1.57 0.703 1.57 1.57 0 0.866-0.703 1.569-1.57 1.569-0.865 0-1.569-0.703-1.569-1.569-1e-3 -0.868 0.704-1.57 1.569-1.57zm0 8.078c0.867 0 1.57 0.702 1.57 1.569 0 0.866-0.703 1.569-1.57 1.569-0.865 0-1.569-0.703-1.569-1.569-1e-3 -0.867 0.704-1.569 1.569-1.569zm0 7.866c0.867 0 1.57 0.702 1.57 1.569 0 0.865-0.703 1.568-1.57 1.568-0.865 0-1.569-0.704-1.569-1.568-1e-3 -0.867 0.704-1.569 1.569-1.569zm-4.038-15.944c0.865 0 1.569 0.703 1.569 1.57 0 0.866-0.704 1.569-1.569 1.569-0.867 0-1.568-0.703-1.568-1.569-1e-3 -0.868 0.701-1.57 1.568-1.57zm0 4.039c0.865 0 1.569 0.703 1.569 1.568 0 0.867-0.704 1.569-1.569 1.569-0.867 0-1.568-0.702-1.568-1.569-1e-3 -0.865 0.701-1.568 1.568-1.568zm0 4.039c0.865 0 1.569 0.702 1.569 1.569 0 0.866-0.704 1.569-1.569 1.569-0.867 0-1.568-0.703-1.568-1.569-1e-3 -0.867 0.701-1.569 1.568-1.569zm0 7.866c0.865 0 1.569 0.702 1.569 1.569 0 0.865-0.704 1.568-1.569 1.568-0.867 0-1.568-0.704-1.568-1.568-1e-3 -0.867 0.701-1.569 1.568-1.569zm-8.29-15.944c0.867 0 1.569 0.703 1.569 1.57 0 0.866-0.702 1.569-1.569 1.569s-1.568-0.703-1.568-1.569c-1e-3 -0.868 0.701-1.57 1.568-1.57zm0 4.039c0.867 0 1.569 0.703 1.569 1.568 0 0.867-0.702 1.569-1.569 1.569s-1.568-0.702-1.568-1.569c-1e-3 -0.865 0.701-1.568 1.568-1.568zm0 4.039c0.867 0 1.569 0.702 1.569 1.569 0 0.866-0.702 1.569-1.569 1.569s-1.568-0.703-1.568-1.569c-1e-3 -0.867 0.701-1.569 1.568-1.569zm0 3.881c0.867 0 1.569 0.701 1.569 1.568 0 0.865-0.702 1.569-1.569 1.569s-1.568-0.704-1.568-1.569c-1e-3 -0.867 0.701-1.568 1.568-1.568zm0 3.985c0.867 0 1.569 0.702 1.569 1.569 0 0.865-0.702 1.568-1.569 1.568s-1.568-0.704-1.568-1.568c-1e-3 -0.867 0.701-1.569 1.568-1.569zm-4.039-11.905c0.867 0 1.568 0.703 1.568 1.568 0 0.867-0.701 1.569-1.568 1.569s-1.569-0.702-1.569-1.569c0-0.865 0.701-1.568 1.569-1.568zm-8.502-0.212c0.865 0 1.569 0.703 1.569 1.568 0 0.867-0.704 1.569-1.569 1.569-0.867 0-1.571-0.703-1.571-1.569 0-0.865 0.703-1.568 1.571-1.568zm0 4.038c0.865 0 1.569 0.703 1.569 1.57 0 0.866-0.704 1.57-1.569 1.57-0.867 0-1.571-0.704-1.571-1.57 0-0.867 0.703-1.57 1.571-1.57zm-4.039-8.078c0.865 0 1.568 0.703 1.568 1.57 0 0.866-0.704 1.568-1.568 1.568-0.867 0-1.569-0.703-1.569-1.568 0-0.867 0.701-1.57 1.569-1.57zm0 4.04c0.865 0 1.568 0.703 1.568 1.568 0 0.867-0.704 1.569-1.568 1.569-0.867 0-1.569-0.703-1.569-1.569 0-0.865 0.701-1.568 1.569-1.568zm0 4.038c0.865 0 1.568 0.703 1.568 1.57 0 0.866-0.704 1.57-1.568 1.57-0.867 0-1.569-0.704-1.569-1.57 0-0.867 0.701-1.57 1.569-1.57zm0 4.04c0.865 0 1.568 0.704 1.568 1.569 0 0.867-0.704 1.568-1.568 1.568-0.867 0-1.569-0.701-1.569-1.568 0-0.866 0.701-1.569 1.569-1.569zm-4.254-8.078c0.867 0 1.569 0.703 1.569 1.568 0 0.867-0.702 1.569-1.569 1.569s-1.568-0.703-1.568-1.569c0-0.865 0.701-1.568 1.568-1.568zm0 4.038c0.867 0 1.569 0.703 1.569 1.57 0 0.866-0.702 1.57-1.569 1.57s-1.568-0.704-1.568-1.57c0-0.867 0.701-1.57 1.568-1.57zm0 4.04c0.867 0 1.569 0.704 1.569 1.569 0 0.867-0.702 1.568-1.569 1.568s-1.568-0.701-1.568-1.568c0-0.866 0.701-1.569 1.568-1.569zm0 4.039c0.867 0 1.569 0.702 1.569 1.569 0 0.865-0.702 1.568-1.569 1.568s-1.568-0.704-1.568-1.568c0-0.867 0.701-1.569 1.568-1.569zm-4.464-16.157c0.867 0 1.571 0.703 1.571 1.57 0 0.866-0.704 1.568-1.571 1.568-0.865 0-1.569-0.703-1.569-1.568 0-0.867 0.704-1.57 1.569-1.57zm0 4.04c0.867 0 1.571 0.703 1.571 1.568 0 0.867-0.704 1.569-1.571 1.569-0.865 0-1.569-0.703-1.569-1.569 0-0.865 0.704-1.568 1.569-1.568zm0 4.038c0.867 0 1.571 0.703 1.571 1.57 0 0.866-0.704 1.57-1.571 1.57-0.865 0-1.569-0.704-1.569-1.57 0-0.867 0.704-1.57 1.569-1.57zm0 4.04c0.867 0 1.571 0.704 1.571 1.569 0 0.867-0.704 1.568-1.571 1.568-0.865 0-1.569-0.701-1.569-1.568 0-0.866 0.704-1.569 1.569-1.569zm-4.037-8.078c0.865 0 1.569 0.703 1.569 1.568 0 0.867-0.704 1.569-1.569 1.569-0.867 0-1.569-0.703-1.569-1.569 0-0.865 0.702-1.568 1.569-1.568zm0 4.038c0.865 0 1.569 0.703 1.569 1.57 0 0.866-0.704 1.57-1.569 1.57-0.867 0-1.569-0.704-1.569-1.57 0-0.867 0.702-1.57 1.569-1.57z"/></g></svg>
