<svg enable-background="new 0 0 171 195" version="1.1" viewBox="0 0 171 195" xml:space="preserve" xmlns="http://www.w3.org/2000/svg"><g fill="#fff"><path d="m77.694 174.64c-0.104-0.13-10.495-12.996-12.609-15.76-1.321-1.727-3.307-2.678-5.593-2.678-2.56 0-4.836 1.17-5.512 1.553l-5.486 2.743c-1.773-0.479-5.587-1.95-9.28-6.268-3.284-3.839-3.261-8.986-3.086-11.099l5.893-5.893c3.093-2.717 2.452-6.516 1.246-8.431l-0.219-0.311s-12.862-16.221-14.666-18.498c-0.989-1.249-2.475-1.938-4.184-1.938-2.849 0-5.879 1.975-6.756 2.592-10.885 7.749-11.586 14.562-11.631 15.313l-0.024 0.414 0.074 0.409c6.412 35.726 26.026 51.137 35.453 58.543 1.148 0.901 2.14 1.681 2.854 2.306 6.563 5.747 13.762 6.367 16.553 6.367 2.375-1e-3 4.48-0.405 6.089-1.171 4.366-2.078 9.425-8.01 10.872-9.778 2.501-3.059 1.283-6.599 0.168-8.208l-0.156-0.207zm-13.893 11.873c-0.499 0.237-1.57 0.491-3.081 0.491-1.56 0-7.032-0.334-11.944-4.632-0.854-0.747-1.913-1.579-3.139-2.543-8.694-6.83-26.729-21.001-32.78-53.684 0.289-0.979 1.829-4.938 8.62-9.771 0.652-0.453 1.508-0.904 2.119-1.142 2.831 3.572 11.41 14.392 13.502 17.03l-7.528 7.527-0.203 1.055c-0.081 0.422-1.911 10.409 4.527 17.937 6.286 7.349 13.25 8.667 14.583 8.856l1.082 0.154 7.644-3.823 0.218-0.118c0.281-0.167 1.335-0.648 2.071-0.648 0.036 0 0.065 1e-3 0.088 3e-3 2.149 2.8 11.105 13.897 12.5 15.624 1e-3 4e-3 2e-3 7e-3 4e-3 0.01-2.562 3.095-6.173 6.669-8.283 7.674z"/><path d="m137.85 65.824c5.512-5.177 7.156-11.975 5.033-20.783-0.207-0.856-0.848-1.541-1.689-1.802-0.842-0.262-1.76-0.06-2.414 0.53l-8.221 7.403c-1.438-0.795-3.676-2.451-4.465-5.33l6.803-6.729c0.947-0.938 0.992-2.453 0.104-3.446l-0.186-0.207c-0.193-0.216-0.422-0.396-0.678-0.533-0.16-0.086-3.988-2.116-8.824-2.116-4.709 0-8.859 1.921-12.002 5.556-6 6.938-4.557 15.042-3.543 18.471l-3.488 3.488-10.284-9.236 4.717-3.266-20.042-13.724-10.601 10.603 13.724 20.041 3.266-4.717 9.237 10.282-3.295 3.294c-1.5-0.478-3.883-1.052-6.663-1.052-5.429 0-10.236 2.174-13.962 6.359-0.271 0.329-6.599 8.165-2.751 18.621 0.284 0.773 0.931 1.356 1.729 1.56 0.796 0.203 1.645 1e-3 2.264-0.541l8.295-7.259c1.323 0.567 3.622 2.08 4.659 5.925l-7.384 7.516c-0.634 0.645-0.87 1.582-0.617 2.45s0.954 1.532 1.835 1.737c0.11 0.025 2.724 0.623 6.175 0.623 6.84 0 12.112-2.271 15.245-6.567 3.363-4.613 4.094-9.433 3.994-13.088l16.217 16.217 0.172 0.158c1.521 1.26 4.318 2.725 7.451 2.725 2.227 0 4.625-0.741 6.852-2.824l5.518-5.516 0.102-0.104c5.012-5.358 2.258-11.698 0.1-14.302l-16.945-16.959c1.027 0.106 2.148 0.181 3.322 0.181 4.888-1e-3 8.669-1.225 11.24-3.639zm-53.299-13.846l-2.734 3.949-7.276-10.625 4.731-4.732 10.625 7.276-3.95 2.734 14.792 13.286-4.094 4.093 1.191-1.192-13.285-14.789zm13.562 33.524c0.109 0.313 2.615 7.746-2.328 14.527-2.77 3.798-7.748 4.526-11.4 4.512l4.703-4.787c0.566-0.576 0.82-1.391 0.68-2.187-1.791-10.147-9.745-11.484-10.083-11.536-0.729-0.11-1.471 0.104-2.027 0.589l-6.204 5.428c-0.522-5.56 2.413-9.489 2.759-9.932 2.721-3.03 6.127-4.566 10.125-4.566 3.515 0 6.231 1.211 6.249 1.22 0.953 0.439 2.076 0.241 2.818-0.501l19-19c0.725-0.724 0.934-1.816 0.527-2.756-0.035-0.083-3.494-8.34 2.158-14.876 2.195-2.539 4.961-3.826 8.221-3.826 1.23 0 2.383 0.183 3.365 0.421l-5.047 4.993c-0.551 0.544-0.818 1.312-0.725 2.08 1.012 8.3 8.969 11.077 9.307 11.191 0.855 0.288 1.801 0.094 2.473-0.511l6.049-5.447c0.373 4.864-1.02 8.554-4.309 11.642-2.008 1.887-5.359 2.283-7.818 2.283-3.689 0-6.951-0.865-6.982-0.873-0.865-0.236-1.795 0.014-2.43 0.653l-18.5 18.667c-0.671 0.677-0.893 1.69-0.581 2.592zm5.502 1.842v8e-3 -8e-3zm-0.181-1.121c0.01 0.052 0.02 0.104 0.029 0.158-0.01-0.052-0.02-0.107-0.029-0.158zm33.091 10.856l-5.479 5.476c-3.248 2.98-6.9 0.432-7.576-0.087l-18.643-18.645 14.941-15.075-2.035 2.053 18.707 18.706c0.46 0.592 3.097 4.287 0.085 7.572zm-15.209-28.054c8e-3 1e-3 0.016 2e-3 0.023 4e-3 -7e-3 -2e-3 -0.015-3e-3 -0.023-4e-3zm-0.843-0.143c0.02 4e-3 0.045 8e-3 0.066 0.012-0.023-4e-3 -0.045-8e-3 -0.066-0.012z"/><path d="m104.16 6.002c-36.408 0-65.922 29.514-65.922 65.922 0 33.517 25.02 61.172 57.398 65.354v26.224s57.439-21.243 71.969-73.622c0.078-0.283 0.139-0.538 0.211-0.812 0.113-0.424 0.225-0.85 0.33-1.277 0.064-0.263 0.119-0.514 0.178-0.769 1.137-4.851 1.758-9.901 1.758-15.098 0-36.408-29.514-65.922-65.922-65.922zm57.348 79.422l-6e-3 0.027-6e-3 0.027-0.029 0.13c-0.039 0.17-0.076 0.339-0.119 0.515-0.094 0.376-0.191 0.751-0.301 1.161l-0.104 0.4c-0.025 0.108-0.053 0.216-0.082 0.324-5.564 20.056-18.52 37.7-38.506 52.442-7.373 5.438-14.408 9.464-19.719 12.175v-21.502l-6.104-0.788c-29.243-3.777-51.295-28.889-51.295-58.412 0-32.49 26.432-58.922 58.922-58.922 32.488 0 58.922 26.432 58.922 58.922 1e-3 4.509-0.528 9.051-1.573 13.501z"/></g><path d="m54.583 188c-2.791 0-9.989-0.62-16.554-6.364-0.714-0.625-1.706-1.404-2.854-2.306-9.426-7.406-29.041-22.817-35.453-58.543l-0.074-0.409 0.024-0.414c0.044-0.752 0.746-7.564 11.631-15.313 0.877-0.617 3.907-2.592 6.756-2.592 1.708 0 3.194 0.688 4.184 1.938 1.804 2.277 14.666 18.498 14.666 18.498l0.219 0.311c1.206 1.915 1.847 5.714-1.246 8.431l-5.893 5.893c-0.175 2.112-0.198 7.26 3.086 11.099 3.692 4.317 7.507 5.789 9.28 6.268l5.486-2.743c0.676-0.383 2.952-1.553 5.512-1.553 2.286 0 4.272 0.951 5.593 2.678 2.114 2.764 12.504 15.63 12.609 15.76l0.155 0.207c1.115 1.609 2.333 5.149-0.168 8.208-1.447 1.769-6.505 7.7-10.872 9.778-1.607 0.763-3.712 1.167-6.087 1.168zm-47.863-67.858c6.051 32.683 24.086 46.854 32.78 53.684 1.226 0.964 2.285 1.796 3.139 2.543 4.912 4.298 10.384 4.632 11.944 4.632 1.511 0 2.582-0.254 3.081-0.491 2.11-1.005 5.722-4.579 8.284-7.674-1e-3 -3e-3 -3e-3 -6e-3 -4e-3 -0.01-1.394-1.727-10.351-12.824-12.5-15.624-0.023-2e-3 -0.053-3e-3 -0.088-3e-3 -0.736 0-1.79 0.481-2.071 0.648l-0.218 0.118-7.644 3.823-1.082-0.154c-1.333-0.189-8.297-1.508-14.583-8.856-6.438-7.527-4.608-17.515-4.527-17.937l0.203-1.055 7.528-7.527c-2.092-2.639-10.671-13.458-13.502-17.03-0.611 0.237-1.467 0.688-2.119 1.142-6.793 4.833-8.333 8.792-8.621 9.771z" fill="#3A3A3A"/><path d="m78.443 103.54c-3.452 0-6.065-0.598-6.175-0.623-0.881-0.205-1.583-0.869-1.835-1.737s-0.017-1.806 0.617-2.45l7.384-7.516c-1.037-3.845-3.336-5.357-4.659-5.925l-8.295 7.259c-0.62 0.542-1.468 0.744-2.264 0.541-0.798-0.203-1.444-0.787-1.729-1.559-3.848-10.457 2.48-18.293 2.751-18.622 3.726-4.185 8.533-6.359 13.962-6.359 2.78 0 5.162 0.574 6.663 1.052l16.766-16.765c-1.013-3.43-2.457-11.534 3.543-18.471 3.143-3.634 7.293-5.556 12.002-5.556 4.837 0 8.664 2.029 8.825 2.116 0.255 0.137 0.484 0.317 0.677 0.533l0.186 0.207c0.89 0.993 0.845 2.508-0.104 3.446l-6.803 6.729c0.789 2.879 3.028 4.535 4.465 5.33l8.222-7.403c0.654-0.59 1.572-0.792 2.413-0.53 0.842 0.261 1.483 0.945 1.69 1.802 2.123 8.809 0.478 15.606-5.033 20.783-2.57 2.414-6.353 3.638-11.242 3.638-2.789 0-5.324-0.407-6.839-0.714l-16.504 16.653c0.729 3.181 1.631 10.62-3.439 17.574-3.133 4.296-8.405 6.567-15.245 6.567zm-0.196-5.001c3.651 0.015 8.631-0.714 11.4-4.512 4.944-6.781 2.438-14.214 2.329-14.527-0.313-0.902-0.091-1.915 0.582-2.593l18.5-18.667c0.634-0.639 1.564-0.889 2.43-0.653 0.03 8e-3 3.293 0.873 6.982 0.873 2.458 0 5.811-0.396 7.818-2.283 3.288-3.088 4.681-6.778 4.309-11.642l-6.049 5.447c-0.672 0.604-1.617 0.799-2.473 0.511-0.338-0.114-8.295-2.891-9.307-11.191-0.094-0.768 0.173-1.536 0.724-2.08l5.047-4.993c-0.981-0.238-2.135-0.421-3.365-0.421-3.259 0-6.024 1.288-8.221 3.826-5.651 6.536-2.192 14.793-2.157 14.876 0.405 0.94 0.196 2.033-0.528 2.756l-19 19c-0.741 0.742-1.865 0.94-2.817 0.501-0.018-8e-3 -2.735-1.22-6.25-1.22-3.998 0-7.404 1.536-10.125 4.566-0.347 0.442-3.282 4.372-2.759 9.932l6.204-5.428c0.556-0.486 1.298-0.7 2.027-0.589 0.337 0.052 8.291 1.389 10.082 11.536 0.141 0.796-0.112 1.61-0.679 2.187l-4.704 4.788z" fill="#F0C42E"/><g fill="#3A3A3A"><polygon points="78.921 54.025 88.158 64.307 91.698 60.766 78.413 45.976 75.678 49.925 68.402 39.301 73.134 34.569 83.759 41.845 79.809 44.579 94.6 57.865 98.141 54.324 87.858 45.088 92.575 41.822 72.533 28.098 61.932 38.701 75.656 58.742"/><path d="m117.15 63.28c-1.413-0.146-2.64-0.356-3.517-0.534l-2.034 2.053 18.706 18.706c0.46 0.592 3.097 4.287 0.084 7.572l-5.478 5.476c-3.248 2.98-6.901 0.432-7.576-0.087l-18.642-18.645-1.563 1.578c0.245 1.07 0.505 2.63 0.555 4.485l16.217 16.218 0.173 0.158c1.521 1.26 4.318 2.725 7.45 2.725 2.228 0 4.625-0.741 6.853-2.824l5.518-5.516 0.102-0.103c5.012-5.358 2.257-11.699 0.099-14.303l-16.947-16.959z"/></g><path d="m98.023 7c32.489 0 58.922 26.432 58.922 58.922 0 4.508-0.529 9.05-1.573 13.5l-6e-3 0.027-7e-3 0.027-0.029 0.13c-0.038 0.17-0.076 0.339-0.118 0.515-0.094 0.376-0.191 0.751-0.302 1.161l-0.103 0.4c-0.026 0.108-0.054 0.216-0.083 0.324-5.564 20.056-18.52 37.7-38.506 52.442-7.373 5.438-14.408 9.464-19.719 12.175v-21.502l-6.104-0.788c-29.243-3.777-51.294-28.889-51.294-58.412 1e-3 -32.489 26.433-58.921 58.922-58.921m0-7c-36.407 0-65.921 29.514-65.921 65.922 0 33.517 25.02 61.172 57.398 65.354v26.224s57.439-21.243 71.97-73.622c0.078-0.283 0.138-0.538 0.21-0.812 0.114-0.424 0.225-0.85 0.331-1.277 0.063-0.263 0.119-0.514 0.177-0.769 1.138-4.851 1.758-9.901 1.758-15.098-1e-3 -36.408-29.514-65.922-65.923-65.922z" fill="#3A3A3A"/></svg>
