<svg enable-background="new 0 0 56 98" version="1.1" viewBox="0 0 56 98" xml:space="preserve" xmlns="http://www.w3.org/2000/svg"><g fill="#363636"><path d="m54.494 32.197h-1.515v-4.64c0-5.052-4.087-9.186-9.082-9.186h-34.815c-4.996 1e-3 -9.082 4.134-9.082 9.186v42.868c0 5.052 4.087 9.185 9.083 9.185h34.815c4.995 0 9.082-4.133 9.082-9.185v-3.415h1.515c0.415 0 0.757-0.344 0.757-0.764v-13.779c0-0.421-0.342-0.766-0.757-0.766h-1.515v-8.788h1.515c0.832 0 1.514-0.688 1.514-1.531v-7.654c-1e-3 -0.842-0.683-1.531-1.515-1.531zm-20.412-3.109c2.926 0 5.299 2.398 5.299 5.358s-2.373 5.358-5.299 5.358-5.298-2.398-5.298-5.358 2.372-5.358 5.298-5.358zm-15.137 0c2.925 0 5.298 2.398 5.298 5.358s-2.373 5.358-5.298 5.358c-2.926 0-5.298-2.398-5.298-5.358s2.372-5.358 5.298-5.358zm-13.648 20.309c0-2.959 2.371-5.358 5.298-5.358 2.926 0 5.298 2.399 5.298 5.358s-2.373 5.358-5.298 5.358c-2.927 1e-3 -5.298-2.399-5.298-5.358zm13.648 19.497c-2.926 0-5.298-2.398-5.298-5.358s2.372-5.358 5.298-5.358c2.925 0 5.298 2.398 5.298 5.358s-2.373 5.358-5.298 5.358zm1.49-19.903c0-3.382 2.711-6.124 6.055-6.124s6.055 2.742 6.055 6.124-2.711 6.124-6.055 6.124c-3.344-1e-3 -6.055-2.742-6.055-6.124zm13.647 19.903c-2.926 0-5.298-2.398-5.298-5.358s2.372-5.358 5.298-5.358 5.299 2.398 5.299 5.358-2.373 5.358-5.299 5.358zm8.302-14.138c-2.927 0-5.298-2.399-5.298-5.358s2.371-5.358 5.298-5.358c2.926 0 5.298 2.399 5.298 5.358 0 2.958-2.372 5.358-5.298 5.358z"/><path d="m9.646 15.31h33.687c0.843 0 1.432-0.681 1.306-1.514l-1.616-10.768s0-1e-3 -2e-3 -2e-3c-0.25-1.664-1.832-3.026-3.515-3.026h-26.032c-1.686 0-3.268 1.362-3.517 3.028l-1.615 10.767c-0.125 0.833 0.461 1.515 1.304 1.515z"/><path d="m43.333 82.671h-33.687c-0.843 0-1.429 0.683-1.304 1.516l1.615 10.767c0.25 1.666 1.832 3.028 3.516 3.028h26.032c1.684 0 3.266-1.362 3.517-3.026v-2e-3l1.615-10.767c0.128-0.833-0.461-1.516-1.304-1.516z"/></g></svg>
