<svg enable-background="new 0 0 23 23" version="1.1" viewBox="0 0 23 23" xml:space="preserve" xmlns="http://www.w3.org/2000/svg"><path d="M11.5,2c5.238,0,9.5,4.262,9.5,9.5S16.738,21,11.5,21S2,16.738,2,11.5S6.262,2,11.5,2 M11.5,0C5.149,0,0,5.149,0,11.5   C0,17.852,5.149,23,11.5,23C17.852,23,23,17.852,23,11.5C23,5.149,17.852,0,11.5,0L11.5,0z"/><path d="m11.5 9.004c1.376 0 2.496 1.12 2.496 2.496s-1.12 2.496-2.496 2.496-2.496-1.12-2.496-2.496 1.12-2.496 2.496-2.496m0-2c-2.483 0-4.496 2.013-4.496 4.496s2.013 4.496 4.496 4.496 4.496-2.013 4.496-4.496-2.013-4.496-4.496-4.496z"/></svg>
